<svg xmlns="http://www.w3.org/2000/svg" viewBox="0 0 100 100" width="100" height="100">
  <!-- Notebook background -->
  <rect x="15" y="10" width="70" height="80" rx="3" fill="#f8f9fa" stroke="#e9ecef" stroke-width="2"/>
  
  <!-- Spiral binding -->
  <circle cx="25" cy="20" r="2" fill="none" stroke="#6c757d" stroke-width="1.5"/>
  <circle cx="25" cy="30" r="2" fill="none" stroke="#6c757d" stroke-width="1.5"/>
  <circle cx="25" cy="40" r="2" fill="none" stroke="#6c757d" stroke-width="1.5"/>
  <circle cx="25" cy="50" r="2" fill="none" stroke="#6c757d" stroke-width="1.5"/>
  <circle cx="25" cy="60" r="2" fill="none" stroke="#6c757d" stroke-width="1.5"/>
  <circle cx="25" cy="70" r="2" fill="none" stroke="#6c757d" stroke-width="1.5"/>
  <circle cx="25" cy="80" r="2" fill="none" stroke="#6c757d" stroke-width="1.5"/>
  
  <!-- Red margin line -->
  <line x1="35" y1="15" x2="35" y2="85" stroke="#dc3545" stroke-width="1"/>
  
  <!-- Note lines -->
  <line x1="40" y1="25" x2="75" y2="25" stroke="#dee2e6" stroke-width="1"/>
  <line x1="40" y1="35" x2="70" y2="35" stroke="#dee2e6" stroke-width="1"/>
  <line x1="40" y1="45" x2="75" y2="45" stroke="#dee2e6" stroke-width="1"/>
  <line x1="40" y1="55" x2="65" y2="55" stroke="#dee2e6" stroke-width="1"/>
  <line x1="40" y1="65" x2="75" y2="65" stroke="#dee2e6" stroke-width="1"/>
  <line x1="40" y1="75" x2="60" y2="75" stroke="#dee2e6" stroke-width="1"/>
  
  <!-- Pen -->
  <line x1="70" y1="30" x2="80" y2="20" stroke="#495057" stroke-width="2" stroke-linecap="round"/>
  <circle cx="81" cy="19" r="1.5" fill="#007bff"/>
</svg>